<?xml version="1.0" encoding="utf-8"?>
<!-- Generator: Adobe Illustrator 24.0.3, SVG Export Plug-In . SVG Version: 6.00 Build 0)  -->
<svg version="1.1" id="Layer_1" xmlns="http://www.w3.org/2000/svg" xmlns:xlink="http://www.w3.org/1999/xlink" x="0px" y="0px"
	 viewBox="0 0 23.3 23.3" style="enable-background:new 0 0 23.3 23.3;" xml:space="preserve">
<style type="text/css">
	.st0{fill:#939598;}
</style>
<g>
	<path class="st0" d="M1,7.7l2.7,1.6c2.5,1.5,5,3,7.4,4.5c0.2,0.1,0.3,0.2,0.5,0.2c0.2,0,0.3-0.1,0.5-0.2c1.8-1.2,3.7-2.3,5.5-3.5
		l3-1.9c0.5-0.3,1-0.6,1.5-1c0.2-0.1,0.3-0.3,0.3-0.5l0,0c0-0.1-0.1-0.3-0.4-0.5l0,0c-1.4-0.9-2.9-1.7-4.3-2.6l-3.6-2.2
		c-0.8-0.5-1.5-0.9-2.3-1.4c-0.2-0.1-0.4-0.2-0.6-0.2c-0.2,0-0.3,0.1-0.4,0.2c-1.6,1-3.1,2-4.7,2.9L3.2,5.2C2.5,5.7,1.7,6.1,1,6.6
		C0.8,6.7,0.7,6.8,0.6,7C0.6,7.2,0.6,7.4,1,7.7z M2.3,7.1l9.3-5.8L21,7l-9.3,5.8L2.3,7.1z"/>
	<path class="st0" d="M22.2,15.7c-0.2-0.1-0.3,0-0.6,0.1c-2,1.3-4.1,2.5-6.1,3.8L11.7,22l-0.3-0.2c-0.1,0-0.1-0.1-0.2-0.1l-8.9-5.4
		c-0.3-0.2-0.5-0.3-0.8-0.5c-0.1-0.1-0.2-0.1-0.3-0.1c-0.2,0-0.5,0.1-0.6,0.4c0,0.1,0,0.4,0.3,0.6L11.2,23c0.2,0.1,0.3,0.2,0.4,0.2
		l0.1,0c0.1,0,0.3-0.1,0.4-0.2c2.3-1.4,4.6-2.8,6.9-4.3l1.9-1.2c0.5-0.3,0.9-0.6,1.4-0.9c0.2-0.1,0.3-0.3,0.3-0.5
		C22.6,15.9,22.5,15.8,22.2,15.7z"/>
	<path class="st0" d="M1.1,12.3l3.3,2c2.3,1.4,4.5,2.8,6.8,4.1c0.2,0.1,0.3,0.2,0.5,0.2c0.2,0,0.3-0.1,0.5-0.2
		c2-1.2,3.9-2.4,5.9-3.7l4.2-2.6c0.2-0.2,0.3-0.3,0.3-0.6c0-0.5-0.6-0.6-0.9-0.4c-0.3,0.2-0.6,0.3-0.9,0.5l-9.2,5.7L4.4,13
		c-0.9-0.6-1.9-1.1-2.8-1.7c-0.1-0.1-0.2-0.1-0.3-0.1c-0.2,0-0.5,0.1-0.6,0.4C0.7,11.8,0.7,12,1.1,12.3z"/>
</g>
</svg>
