<?xml version="1.0" encoding="utf-8"?>
<!-- Generator: Adobe Illustrator 24.0.3, SVG Export Plug-In . SVG Version: 6.00 Build 0)  -->
<svg version="1.1" id="Layer_1" xmlns="http://www.w3.org/2000/svg" xmlns:xlink="http://www.w3.org/1999/xlink" x="0px" y="0px"
	 viewBox="0 0 23.288 23.283" enable-background="new 0 0 23.288 23.283" xml:space="preserve">
<g id="rC1uHG.tif_1_">
	<g>
		<path d="M11.645,0c6.41-0.001,11.644,5.237,11.64,11.65c-0.004,6.392-5.24,11.629-11.633,11.633
			C5.24,23.288,0.002,18.054,0.002,11.643C0.003,5.22,5.222,0.001,11.645,0z M21.167,11.65c-0.036-5.25-4.124-9.515-9.507-9.528
			c-5.284-0.013-9.529,4.123-9.536,9.519c-0.007,5.3,4.181,9.503,9.512,9.514C16.904,21.165,21.12,16.979,21.167,11.65z"/>
		<path d="M12.701,7.978c0,0.981,0.004,1.963-0.004,2.944c-0.002,0.192,0.051,0.331,0.191,0.469
			c1.218,1.207,2.427,2.423,3.642,3.634c0.28,0.279,0.455,0.592,0.402,1.006c-0.092,0.723-0.932,1.145-1.556,0.768
			c-0.142-0.086-0.271-0.2-0.39-0.318c-1.314-1.308-2.618-2.625-3.941-3.924c-0.338-0.332-0.477-0.706-0.474-1.168
			c0.008-1.526,0.003-3.053,0.003-4.58c0-0.575,0.001-1.15,0-1.725c-0.001-0.373,0.092-0.709,0.388-0.958
			c0.305-0.257,0.657-0.324,1.029-0.187c0.394,0.145,0.626,0.44,0.693,0.856c0.019,0.117,0.015,0.237,0.015,0.356
			C12.702,6.094,12.701,7.036,12.701,7.978z"/>
	</g>
</g>
</svg>
