<?xml version="1.0" encoding="utf-8"?>
<!-- Generator: Adobe Illustrator 24.0.3, SVG Export Plug-In . SVG Version: 6.00 Build 0)  -->
<svg version="1.1" id="Layer_1" xmlns="http://www.w3.org/2000/svg" xmlns:xlink="http://www.w3.org/1999/xlink" x="0px" y="0px"
	 viewBox="0 0 23.288 23.283" enable-background="new 0 0 23.288 23.283" xml:space="preserve">
<g id="x91qoE.tif_7_">
	<g>
		<path fill="#000000" d="M23.288,1.778c0,0.792,0,1.527,0,2.31c-5.757,0-11.496,0-17.276,0c0-0.764,0-1.513,0-2.31
			C11.751,1.778,17.489,1.778,23.288,1.778z"/>
		<path fill="#000000" d="M23.284,10.503c0,0.769,0,1.502,0,2.29c-5.745,0-11.48,0-17.264,0c0-0.743,0-1.489,0-2.29
			C11.741,10.503,17.477,10.503,23.284,10.503z"/>
		<path fill="#000000" d="M5.998,21.502c0-0.772,0-1.504,0-2.284c5.745,0,11.48,0,17.262,0c0,0.737,0,1.483,0,2.284
			C17.531,21.502,11.799,21.502,5.998,21.502z"/>
		<path fill="#000000" d="M0.024,1.769c0.763,0,1.508,0,2.309,0c0,0.773,0,1.532,0,2.329c-0.764,0-1.511,0-2.309,0
			C0.024,3.325,0.024,2.566,0.024,1.769z"/>
		<path fill="#000000" d="M2.334,12.813c-0.767,0-1.515,0-2.312,0c0-0.775,0-1.533,0-2.327c0.768,0,1.513,0,2.312,0
			C2.334,11.259,2.334,12.018,2.334,12.813z"/>
		<path fill="#000000" d="M0,21.515c0-0.787,0-1.518,0-2.297c0.778,0,1.543,0,2.349,0c0,0.765,0,1.51,0,2.297
			C1.564,21.515,0.816,21.515,0,21.515z"/>
	</g>
</g>
</svg>
