<?xml version="1.0" encoding="utf-8"?>
<!-- Generator: Adobe Illustrator 24.0.3, SVG Export Plug-In . SVG Version: 6.00 Build 0)  -->
<svg version="1.1" id="Layer_1" xmlns="http://www.w3.org/2000/svg" xmlns:xlink="http://www.w3.org/1999/xlink" x="0px" y="0px"
	 viewBox="0 0 23.288 23.283" enable-background="new 0 0 23.288 23.283" xml:space="preserve">
<g>
	<path d="M13.106,5.528c0,0.082,0,0.164,0,0.246c0,3.54,0,7.081,0,10.621c0,0.421-0.089,0.814-0.388,1.127
		c-0.434,0.454-0.965,0.581-1.554,0.385c-0.571-0.191-0.884-0.614-0.958-1.21c-0.018-0.143-0.02-0.29-0.021-0.434
		c-0.001-3.485-0.001-6.97-0.001-10.455c0-0.088,0-0.177,0-0.265c-0.013-0.007-0.027-0.013-0.04-0.02
		c-0.058,0.055-0.116,0.108-0.173,0.165C8.486,7.174,7,8.661,5.511,10.145c-0.136,0.135-0.285,0.265-0.447,0.366
		c-0.473,0.295-1.303,0.247-1.789-0.317C2.886,9.743,2.824,8.996,3.127,8.534c0.086-0.132,0.189-0.256,0.301-0.368
		C5.81,5.776,8.195,3.389,10.578,1c0.36-0.361,0.78-0.537,1.293-0.457c0.244,0.038,0.463,0.135,0.65,0.298
		c0.115,0.1,0.224,0.205,0.332,0.313c2.331,2.334,4.661,4.668,6.992,7.002c0.208,0.208,0.385,0.431,0.465,0.723
		c0.253,0.931-0.412,1.696-1.181,1.807c-0.506,0.073-0.922-0.105-1.276-0.454c-0.344-0.34-0.682-0.687-1.025-1.029
		c-1.182-1.184-2.366-2.367-3.547-3.552c-0.043-0.043-0.074-0.1-0.111-0.15C13.148,5.509,13.127,5.519,13.106,5.528z"/>
	<path d="M2.915,19.845c5.832,0,11.638,0,17.467,0c0-0.081,0-0.155,0-0.229c0-0.878,0.003-1.756-0.002-2.635
		c-0.002-0.368,0.095-0.699,0.333-0.978c0.262-0.307,0.593-0.484,1.005-0.509c0.406-0.026,0.77,0.074,1.075,0.343
		c0.29,0.257,0.465,0.58,0.488,0.974c0.004,0.062,0.005,0.124,0.005,0.187c0,1.411-0.001,2.821,0.001,4.232
		c0,0.289-0.044,0.565-0.201,0.813c-0.268,0.422-0.643,0.676-1.151,0.711c-0.09,0.006-0.18,0.005-0.27,0.005
		c-6.687,0-13.374,0-20.061,0.001c-0.309,0-0.609-0.024-0.877-0.195c-0.435-0.276-0.712-0.654-0.72-1.185
		c-0.01-0.671-0.006-1.341-0.006-2.012C0.002,18.58,0.008,17.791,0,17.003c-0.003-0.344,0.069-0.662,0.278-0.934
		c0.305-0.399,0.712-0.589,1.221-0.58c0.664,0.011,1.232,0.466,1.377,1.106c0.032,0.14,0.036,0.288,0.037,0.432
		c0.003,0.857,0.002,1.715,0.002,2.572C2.915,19.675,2.915,19.75,2.915,19.845z"/>
</g>
</svg>
