<?xml version="1.0" encoding="utf-8"?>
<!-- Generator: Adobe Illustrator 24.0.3, SVG Export Plug-In . SVG Version: 6.00 Build 0)  -->
<svg version="1.1" id="Layer_1" xmlns="http://www.w3.org/2000/svg" xmlns:xlink="http://www.w3.org/1999/xlink" x="0px" y="0px"
	 viewBox="0 0 23.288 23.283" enable-background="new 0 0 23.288 23.283" xml:space="preserve">
<g id="q8tyCJ.tif_2_">
	<g>
		<g>
			<path fill="#FFFFFF" d="M0,11.654C-0.011,5.213,5.19,0.007,11.647-0.003c6.428-0.01,11.626,5.185,11.641,11.635
				c0.015,6.439-5.2,11.66-11.643,11.654C5.199,23.281,0.011,18.098,0,11.654z M18.991,19.084c3.603-3.347,4.563-9.842,0.465-14.437
				C15.368,0.063,8.177-0.069,3.927,4.546c-4.02,4.364-3.461,10.906,0.372,14.549c0.833-2.822,2.669-4.644,5.495-5.491
				C7.201,12.367,6.72,9.837,7.101,8.262C7.591,6.24,9.34,4.72,11.517,4.661c1.891-0.051,3.63,0.991,4.432,2.866
				c0.498,1.164,0.494,2.362,0.011,3.535c-0.479,1.162-1.314,2.001-2.49,2.538C16.324,14.449,18.149,16.273,18.991,19.084z
				 M5.34,20.003c0.596,0.427,1.2,0.818,1.858,1.124c1.911,0.888,3.907,1.196,5.993,0.882c1.702-0.256,3.245-0.899,4.636-1.912
				c0.107-0.078,0.135-0.152,0.102-0.275c-0.077-0.288-0.129-0.583-0.22-0.866c-0.373-1.15-1.029-2.118-1.95-2.893
				c-0.934-0.786-2.011-1.264-3.228-1.437c-1.143-0.162-2.245-0.023-3.303,0.412c-1.557,0.641-2.685,1.745-3.392,3.274
				C5.588,18.85,5.426,19.412,5.34,20.003z M8.072,9.312c-0.002,1.981,1.601,3.581,3.584,3.578c1.969-0.003,3.562-1.601,3.563-3.575
				c0.001-1.973-1.59-3.572-3.56-3.578C9.676,5.732,8.074,7.328,8.072,9.312z"/>
		</g>
	</g>
</g>
</svg>
