<?xml version="1.0" encoding="utf-8"?>
<!-- Generator: Adobe Illustrator 24.0.3, SVG Export Plug-In . SVG Version: 6.00 Build 0)  -->
<svg version="1.1" id="Layer_1" xmlns="http://www.w3.org/2000/svg" xmlns:xlink="http://www.w3.org/1999/xlink" x="0px" y="0px"
	 viewBox="0 0 23.288 23.283" enable-background="new 0 0 23.288 23.283" xml:space="preserve">
<g id="YIMdrL.tif_1_">
	<g>
		<path d="M5.827,2.911c0-0.467,0.005-0.902-0.002-1.337C5.82,1.282,5.87,1.007,6.016,0.752c0.295-0.516,0.75-0.768,1.335-0.74
			c0.628,0.031,1.075,0.355,1.288,0.953c0.067,0.189,0.087,0.402,0.093,0.605c0.014,0.435,0.004,0.87,0.004,1.323
			c1.932,0,3.852,0,5.799,0c0.005-0.08,0.012-0.164,0.014-0.247c0.009-0.451-0.006-0.904,0.029-1.353
			c0.058-0.736,0.68-1.284,1.427-1.291c0.719-0.007,1.351,0.542,1.44,1.258c0.021,0.172,0.022,0.347,0.023,0.521
			c0.003,0.364,0.001,0.728,0.001,1.121c0.096,0.003,0.179,0.009,0.263,0.009c0.871,0.001,1.743-0.001,2.614,0.001
			c1.015,0.003,1.822,0.424,2.412,1.244c0.321,0.446,0.496,0.952,0.519,1.505c0.004,0.111,0.008,0.222,0.008,0.333
			c0,4.738-0.002,9.475,0.003,14.213c0.001,0.687-0.152,1.321-0.563,1.875c-0.535,0.721-1.258,1.115-2.154,1.185
			c-0.118,0.009-0.237,0.01-0.356,0.01c-5.712,0-11.424-0.002-17.137,0.003c-0.722,0.001-1.382-0.169-1.951-0.62
			c-0.667-0.528-1.043-1.221-1.103-2.075c-0.016-0.229-0.022-0.459-0.023-0.688C0,15.287,0,10.676,0,6.065
			c0-0.536,0.06-1.059,0.316-1.543c0.525-0.99,1.343-1.553,2.464-1.6c0.917-0.038,1.838-0.01,2.757-0.012
			C5.622,2.911,5.708,2.911,5.827,2.911z M20.362,20.36c0-4.128,0-8.235,0-12.345c-5.817,0-11.62,0-17.426,0
			c0,4.122,0,8.229,0,12.345C8.748,20.36,14.546,20.36,20.362,20.36z"/>
	</g>
</g>
</svg>
