<?xml version="1.0" encoding="utf-8"?>
<!-- Generator: Adobe Illustrator 24.0.3, SVG Export Plug-In . SVG Version: 6.00 Build 0)  -->
<svg version="1.1" id="Layer_1" xmlns="http://www.w3.org/2000/svg" xmlns:xlink="http://www.w3.org/1999/xlink" x="0px" y="0px"
	 viewBox="0 0 23.288 23.283" enable-background="new 0 0 23.288 23.283" xml:space="preserve">
<g>
	<g id="_x36_JcPHM.tif_2_">
		<g>
			<path fill="#40C2F1" d="M8.481,20.954c-2.058-2.058-4.099-4.099-6.152-6.152c0.033-0.037,0.074-0.086,0.118-0.13
				c4.551-4.551,9.102-9.103,13.655-13.653c0.82-0.819,1.806-1.156,2.954-0.967c0.623,0.102,1.178,0.375,1.633,0.813
				c0.583,0.56,1.158,1.129,1.711,1.717c1.069,1.136,1.182,2.823,0.288,4.095c-0.13,0.185-0.282,0.358-0.442,0.519
				c-4.539,4.543-9.08,9.083-13.622,13.624C8.579,20.864,8.53,20.908,8.481,20.954z"/>
			<path fill="#40C2F1" d="M6.89,22.53c-0.598,0.49-1.299,0.745-2.09,0.751c-0.492,0.004-0.985,0.001-1.477,0.001
				c-0.867,0-1.734,0-2.601,0c-0.081,0-0.162,0.002-0.242-0.009c-0.286-0.038-0.464-0.227-0.474-0.517
				c-0.009-0.279-0.003-0.558-0.003-0.837c0-1.146-0.003-2.292,0.001-3.438c0.003-0.802,0.254-1.481,0.75-2.087
				C2.795,18.435,4.839,20.479,6.89,22.53z"/>
		</g>
	</g>
</g>
</svg>
