<?xml version="1.0" encoding="utf-8"?>
<!-- Generator: Adobe Illustrator 24.0.3, SVG Export Plug-In . SVG Version: 6.00 Build 0)  -->
<svg version="1.1" id="Layer_1" xmlns="http://www.w3.org/2000/svg" xmlns:xlink="http://www.w3.org/1999/xlink" x="0px" y="0px"
	 viewBox="0 0 23.288 23.283" enable-background="new 0 0 23.288 23.283" xml:space="preserve">
<g id="football-2_7_">
	<polygon fill="#ffffff" points="7.022,6.092 8.013,7.083 8.695,6.401 9.343,7.05 8.661,7.731 9.634,8.704 10.316,8.022
		10.964,8.671 10.282,9.353 11.256,10.326 11.937,9.643 12.586,10.292 11.904,10.974 12.876,11.947 13.558,11.265 14.207,11.913
		13.524,12.595 14.497,13.568 15.179,12.886 15.828,13.534 15.145,14.216 16.119,15.189 16.8,14.507 17.449,15.155 16.767,15.838
		17.758,16.828 17.109,17.477 16.119,16.486 15.395,17.209 14.747,16.56 15.47,15.838 14.497,14.865 13.774,15.588 13.126,14.939
		13.848,14.216 12.876,13.244 12.153,13.967 11.505,13.318 12.227,12.595 11.256,11.623 10.532,12.346 9.883,11.697 10.607,10.974
		9.634,10.001 8.911,10.724 8.262,10.076 8.985,9.353 8.013,8.38 7.29,9.103 6.641,8.455 7.364,7.731 6.374,6.741 	"/>
	<path fill="#ffffff" d="M0.271,7.154c0.438,3.376,1.641,8.081,4.889,11.33c3.955,3.955,9.785,4.786,13.979,4.786
		c2.046,0,3.412-0.205,3.469-0.213l0.323-0.049l0.059-0.321c0.081-0.442,1.915-10.9-4.608-17.423
		C13.816,0.696,6.975,0.014,3.304,0.014c-1.687,0-2.767,0.139-2.812,0.145L0.132,0.207L0.095,0.567
		C0.083,0.686-0.199,3.52,0.271,7.154z M18.258,22.336l4.081-4.081c0.047,1.863-0.115,3.315-0.201,3.936
		c-0.517,0.06-1.601,0.161-2.999,0.161C18.866,22.352,18.568,22.346,18.258,22.336z M1.056,5.803L5.79,1.04
		c3.623,0.309,8.491,1.418,11.944,4.871c3.253,3.253,4.291,7.654,4.544,11.109l-5.253,5.252c-3.39-0.257-8.022-1.243-11.216-4.437
		C2.503,14.528,1.393,9.55,1.056,5.803z M0.979,1.03C1.423,0.99,2.243,0.932,3.304,0.932c0.388,0,0.817,0.01,1.271,0.03L0.971,4.588
		C0.884,2.929,0.94,1.633,0.979,1.03z"/>
</g>
</svg>
