<?xml version="1.0" encoding="utf-8"?>
<!-- Generator: Adobe Illustrator 24.0.3, SVG Export Plug-In . SVG Version: 6.00 Build 0)  -->
<svg version="1.1" id="Layer_1" xmlns="http://www.w3.org/2000/svg" xmlns:xlink="http://www.w3.org/1999/xlink" x="0px" y="0px"
	 viewBox="0 0 23.288 23.283" enable-background="new 0 0 23.288 23.283" xml:space="preserve">
<path fill="#818285" d="M0.002,11.642c0,6.43,5.212,11.641,11.642,11.641c6.43,0,11.642-5.212,11.642-11.641
	C23.286,5.212,18.074,0,11.644,0C5.214,0,0.002,5.212,0.002,11.642z M22.428,11.166h-5.408c0.158-3.213,1.791-5.824,2.539-6.856
	C21.244,6.128,22.312,8.525,22.428,11.166z M19.6,18.93c-0.732-0.959-2.468-3.583-2.587-6.917h5.417
	C22.34,14.673,21.285,17.093,19.6,18.93z M12.134,12.012h4.033c0.119,3.728,2.068,6.56,2.829,7.524
	c-1.817,1.694-4.217,2.769-6.862,2.888V12.012z M12.134,0.859c2.622,0.118,5.003,1.175,6.815,2.843
	c-0.779,1.042-2.617,3.872-2.777,7.464h-4.038V0.859z M3.788,4.249C4.513,5.238,6.21,7.89,6.371,11.166h-5.51
	C0.977,8.495,2.069,6.074,3.788,4.249z M11.288,11.166h-4.07C7.054,7.5,5.147,4.634,4.398,3.646c1.835-1.665,4.244-2.705,6.89-2.791
	V11.166z M4.35,19.592c0.725-0.905,2.752-3.774,2.873-7.58h4.065v10.416C8.618,22.341,6.191,21.282,4.35,19.592z M0.858,12.012
	h5.519c-0.121,3.401-1.928,6.067-2.632,6.977C2.028,17.145,0.949,14.702,0.858,12.012z"/>
</svg>
